<svg xmlns="http://www.w3.org/2000/svg" width="44" height="33.173" viewBox="0 0 44 33.173">
  <g id="Group_31" data-name="Group 31" transform="translate(-328 -862)">
    <path id="Polygon_1" data-name="Polygon 1" d="M7.4,2.133a2,2,0,0,1,3.2,0l5,6.667A2,2,0,0,1,14,12H4A2,2,0,0,1,2.4,8.8Z" transform="matrix(-1, 0.017, -0.017, -1, 363.017, 894.859)" fill="#fff"/>
    <rect id="Rectangle_53" data-name="Rectangle 53" width="44" height="24" rx="12" transform="translate(328 862)" fill="#fff"/>
    <g id="Ellipse_4" data-name="Ellipse 4" transform="translate(336 871)" fill="#707070" stroke="#707070" stroke-width="1">
      <circle cx="3" cy="3" r="3" stroke="none"/>
      <circle cx="3" cy="3" r="2.5" fill="none"/>
    </g>
    <g id="Ellipse_5" data-name="Ellipse 5" transform="translate(347 871)" fill="#707070" stroke="#707070" stroke-width="1">
      <circle cx="3" cy="3" r="3" stroke="none"/>
      <circle cx="3" cy="3" r="2.5" fill="none"/>
    </g>
    <g id="Ellipse_6" data-name="Ellipse 6" transform="translate(358 871)" fill="#707070" stroke="#707070" stroke-width="1">
      <circle cx="3" cy="3" r="3" stroke="none"/>
      <circle cx="3" cy="3" r="2.5" fill="none"/>
    </g>
  </g>
</svg>
