<svg xmlns="http://www.w3.org/2000/svg" viewBox="0 0 575.04 197.22"><defs><style>.a{fill:#262425;}.b{fill:#c52084;}.c{fill:#e5eef2;}.d{fill:#e0e7eb;}.e{fill:#1d1d1b;}</style></defs><title>infomedia</title><path class="a" d="M60.34,288.75h12c9.29,21.39,18.63,42.87,28.13,64.72H84.14l-5.56-13.39H53.71l-5.43,13.46H32.37C41.76,331.8,51,310.38,60.34,288.75ZM65.91,308c-2.71,7-5.13,13.19-7.6,19.55h15.3Z" transform="translate(-31.29 -258.44)"/><path class="a" d="M151.58,335.75c3,10,12.12,11.22,19.91,3.08l9.52,7c-6.33,8.41-18.23,11.3-28.95,7.18-9.72-3.73-15.41-13-14.48-23.64,1-11,8.21-18.79,19.43-20.86,12.64-2.33,22.51,3.46,25.23,15.12.88,3.8.94,7.79,1.43,12.14Zm17.6-9.46c-.55-5.52-3.44-8.2-8.63-8.12s-8.51,3.24-8.75,8.12Z" transform="translate(-31.29 -258.44)"/><path class="a" d="M120.83,281.41h13.46v72.07H120.83Z" transform="translate(-31.29 -258.44)"/><path class="a" d="M101.72,281.41h13.34V353.5H101.72Z" transform="translate(-31.29 -258.44)"/><path class="b" d="M197.77,268.77l-3.52,3.42q-4.41,4.47-8.8,8.95l-2.84,2.79-8.28,8.17-13,14.14-24-24.87,16.83-4.51q22-5.91,44-11.82a21.34,21.34,0,0,1,3-.37l-.07-.05Z" transform="translate(-31.29 -258.44)"/><path class="b" d="M214.23,258.67l.11-.22-.18.17Z" transform="translate(-31.29 -258.44)"/><path class="c" d="M605.57,420.4c.27.11.67.18.75.36s-.19.51-.31.77c-.26-.12-.67-.18-.74-.37S605.46,420.66,605.57,420.4Z" transform="translate(-31.29 -258.44)"/><path class="d" d="M420,405.4l0-2.21Z" transform="translate(-31.29 -258.44)"/><path class="e" d="M47.19,435.85H32.13V363.29H47.19Z" transform="translate(-31.29 -258.44)"/><path class="e" d="M59.89,363.29H75.78l28.81,50.6v-50.6h14.12v72.56H103.56L74,384.37v51.48H59.89Z" transform="translate(-31.29 -258.44)"/><path class="e" d="M131.56,363.39h51.73v12.75H146.62v16.69h32.14v12.6H146.62v30.42H131.56Z" transform="translate(-31.29 -258.44)"/><path class="e" d="M245.57,429.4q-8.22,8.48-23.78,8.47T198,429.4Q187,419,187,399.47q0-19.94,11-29.92,8.22-8.48,23.77-8.47t23.78,8.47q11,10,11,29.92Q256.55,419,245.57,429.4Zm-9.48-11q5.29-6.64,5.3-18.91t-5.3-18.87a17.27,17.27,0,0,0-14.3-6.67,17.53,17.53,0,0,0-14.37,6.64q-5.37,6.65-5.36,18.9t5.36,18.91A17.53,17.53,0,0,0,221.79,425Q230.81,425,236.09,418.38Z" transform="translate(-31.29 -258.44)"/><path class="b" d="M322.45,363.29h21.81v72.56H330.14V386.77c0-1.41,0-3.38.05-5.93s0-4.5,0-5.88l-13.75,60.89H301.75L288.1,375c0,1.38,0,3.34,0,5.88s.05,4.52.05,5.93v49.08H274.07V363.29h22.06l13.21,57Z" transform="translate(-31.29 -258.44)"/><path class="b" d="M409.68,376.14H372.07v15.41h34.46v12.6H372.07v18.66h39.38v13h-54.2V363.29h52.43Z" transform="translate(-31.29 -258.44)"/><path class="b" d="M464.08,364.87a23.94,23.94,0,0,1,12.36,9.2,32.28,32.28,0,0,1,5.17,11.72,56.14,56.14,0,0,1,1.38,12q0,14.47-5.81,24.51-7.89,13.54-24.34,13.54H421.56V363.29h31.28A38.2,38.2,0,0,1,464.08,364.87Zm-27.8,11v47.35h14q10.75,0,15-10.58a37.44,37.44,0,0,0,2.32-13.84q0-11.07-3.48-17t-13.83-5.93Z" transform="translate(-31.29 -258.44)"/><path class="b" d="M507.43,435.85H492.37V363.29h15.06Z" transform="translate(-31.29 -258.44)"/><path class="b" d="M540.35,363.29H557.5l25.67,72.56H566.73l-4.79-14.91H535.22l-4.91,14.91H514.45Zm-1,45.14h18.58l-9.16-28.55Z" transform="translate(-31.29 -258.44)"/><path class="e" d="M39.63,445.06v1.83H36.55v8.47H34.38v-8.47H31.29v-1.83Z" transform="translate(-31.29 -258.44)"/><path class="e" d="M49.42,446.89H44.08v2.18H49v1.79H44.08v2.65h5.59v1.85H42v-10.3h7.44Z" transform="translate(-31.29 -258.44)"/><path class="e" d="M52.46,445.06h2.12v4.25l4-4.25h2.78l-4.23,4.24,4.44,6.06H58.79l-3.18-4.49-1,1.05v3.44H52.46Z" transform="translate(-31.29 -258.44)"/><path class="e" d="M63.83,445.06h2.26l4.08,7.18v-7.18h2v10.3H70l-4.19-7.31v7.31h-2Z" transform="translate(-31.29 -258.44)"/><path class="e" d="M77.37,455.36H75.24v-10.3h2.13Z" transform="translate(-31.29 -258.44)"/><path class="e" d="M80.53,445.06h2.12v4.25l4-4.25H89.4l-4.22,4.24,4.44,6.06H86.85l-3.17-4.49-1,1.05v3.44H80.53Z" transform="translate(-31.29 -258.44)"/><path class="e" d="M98.8,450.9a3.87,3.87,0,0,1-2.58.76H94.08v3.7H91.94v-10.3h4.42a3.59,3.59,0,0,1,2.44.8,3.13,3.13,0,0,1,.91,2.47A3.19,3.19,0,0,1,98.8,450.9Zm-1.64-3.71a1.76,1.76,0,0,0-1.14-.34H94.08v3H96a1.61,1.61,0,0,0,1.14-.37,1.5,1.5,0,0,0,.41-1.17A1.43,1.43,0,0,0,97.16,447.19Z" transform="translate(-31.29 -258.44)"/><path class="e" d="M108.83,445.33a2.44,2.44,0,0,1,1,.72,3.19,3.19,0,0,1,.52.87,2.78,2.78,0,0,1,.19,1.08,3,3,0,0,1-.37,1.44,2.05,2.05,0,0,1-1.22,1,1.92,1.92,0,0,1,1,.82,3.33,3.33,0,0,1,.3,1.61v.69a5.06,5.06,0,0,0,0,.95.85.85,0,0,0,.4.59v.26h-2.38c-.06-.23-.11-.41-.13-.55a5.27,5.27,0,0,1-.1-.89v-1a1.94,1.94,0,0,0-.34-1.31,1.74,1.74,0,0,0-1.23-.33h-2.1v4h-2.1v-10.3h4.93A4.67,4.67,0,0,1,108.83,445.33Zm-4.45,1.52v2.77h2.32a2.46,2.46,0,0,0,1-.17,1.16,1.16,0,0,0,.61-1.16,1.3,1.3,0,0,0-.59-1.26,2.13,2.13,0,0,0-1-.18Z" transform="translate(-31.29 -258.44)"/><path class="e" d="M121.35,454.44a5.31,5.31,0,0,1-6.75,0A5.54,5.54,0,0,1,113,450.2,5.46,5.46,0,0,1,114.6,446a5.35,5.35,0,0,1,6.75,0,5.46,5.46,0,0,1,1.56,4.25A5.54,5.54,0,0,1,121.35,454.44ZM120,452.88a5.16,5.16,0,0,0,0-5.36,2.65,2.65,0,0,0-4.07,0,5.11,5.11,0,0,0,0,5.36,2.67,2.67,0,0,0,4.07,0Z" transform="translate(-31.29 -258.44)"/><path class="e" d="M132.59,448.28a2,2,0,0,0-1.19-1.48,3,3,0,0,0-1.19-.23,2.59,2.59,0,0,0-2,.94,4.29,4.29,0,0,0-.8,2.82,3.48,3.48,0,0,0,.87,2.68,2.81,2.81,0,0,0,2,.79,2.56,2.56,0,0,0,1.77-.62,2.64,2.64,0,0,0,.85-1.63h-2.38v-1.72h4.29v5.53h-1.42l-.22-1.29a5,5,0,0,1-1.12,1,3.93,3.93,0,0,1-2.09.53,4.38,4.38,0,0,1-3.36-1.42,5.45,5.45,0,0,1-1.36-3.9,5.69,5.69,0,0,1,1.38-4,4.67,4.67,0,0,1,3.64-1.51,4.77,4.77,0,0,1,3.15,1,3.77,3.77,0,0,1,1.37,2.49Z" transform="translate(-31.29 -258.44)"/><path class="e" d="M144.44,445.33a2.44,2.44,0,0,1,1,.72,3.19,3.19,0,0,1,.52.87,2.78,2.78,0,0,1,.19,1.08,3,3,0,0,1-.37,1.44,2,2,0,0,1-1.22,1,1.88,1.88,0,0,1,1,.82,3.33,3.33,0,0,1,.3,1.61v.69a6.15,6.15,0,0,0,0,.95.85.85,0,0,0,.4.59v.26h-2.37a4,4,0,0,1-.14-.55,4.41,4.41,0,0,1-.09-.89l0-1a1.94,1.94,0,0,0-.34-1.31,1.73,1.73,0,0,0-1.22-.33H140v4h-2.1v-10.3h4.93A4.67,4.67,0,0,1,144.44,445.33ZM140,446.85v2.77h2.32a2.46,2.46,0,0,0,1-.17,1.16,1.16,0,0,0,.61-1.16,1.3,1.3,0,0,0-.59-1.26,2.13,2.13,0,0,0-1-.18Z" transform="translate(-31.29 -258.44)"/><path class="e" d="M152.23,445.06h2.43l3.64,10.3H156l-.68-2.12H151.5l-.7,2.12h-2.25Zm-.15,6.41h2.64l-1.3-4.05Z" transform="translate(-31.29 -258.44)"/><path class="e" d="M167.49,445.06h3.1v10.3h-2v-7c0-.2,0-.48,0-.85s0-.63,0-.83l-1.95,8.64h-2.09l-1.94-8.64c0,.2,0,.47,0,.83v7.81h-2v-10.3h3.13l1.87,8.1Z" transform="translate(-31.29 -258.44)"/><path class="e" d="M180.57,445.06h3.1v10.3h-2v-7c0-.2,0-.48,0-.85s0-.63,0-.83l-2,8.64h-2.09l-1.93-8.64v.83c0,.37,0,.65,0,.85v7h-2v-10.3h3.13l1.87,8.1Z" transform="translate(-31.29 -258.44)"/><path class="e" d="M194.27,446.89h-5.34v2.18h4.89v1.79h-4.89v2.65h5.59v1.85h-7.69v-10.3h7.44Z" transform="translate(-31.29 -258.44)"/><path class="e" d="M204.89,445.06v1.83h-3.08v8.47h-2.17v-8.47h-3.09v-1.83Z" transform="translate(-31.29 -258.44)"/><path class="e" d="M212.58,445.1H214v10.26h-1.4Z" transform="translate(-31.29 -258.44)"/><path class="e" d="M217.22,445.1h1.64l5.18,8.31V445.1h1.32v10.26H223.8l-5.26-8.31v8.31h-1.32Z" transform="translate(-31.29 -258.44)"/><path class="e" d="M228.65,445.1h4.75a4.7,4.7,0,0,1,1.93.34,2.43,2.43,0,0,1,1.45,2.43,2.73,2.73,0,0,1-.38,1.5,2.83,2.83,0,0,1-1.07.95,2.1,2.1,0,0,1,.91.64,2.38,2.38,0,0,1,.34,1.29l0,1.38a4.73,4.73,0,0,0,.1.87.85.85,0,0,0,.45.63v.23h-1.71a1.7,1.7,0,0,1-.11-.34,6.43,6.43,0,0,1-.07-.81l-.08-1.71a1.43,1.43,0,0,0-.75-1.35,3,3,0,0,0-1.25-.19H230v4.4h-1.39Zm4.6,4.7a2.72,2.72,0,0,0,1.55-.39,1.59,1.59,0,0,0,.57-1.41,1.53,1.53,0,0,0-.8-1.5,2.58,2.58,0,0,0-1.14-.21H230v3.51Z" transform="translate(-31.29 -258.44)"/><path class="e" d="M240,445.1h1.4v10.26H240Z" transform="translate(-31.29 -258.44)"/><path class="e" d="M244.6,445.1H246v5l5-5h1.93l-4.27,4.13,4.38,6.13h-1.8l-3.59-5.15L246,451.78v3.58H244.6Z" transform="translate(-31.29 -258.44)"/><path class="e" d="M263,445.1v1.22h-3.46v9h-1.41v-9H254.7V445.1Z" transform="translate(-31.29 -258.44)"/><path class="e" d="M265.29,445.1h1.64l5.18,8.31V445.1h1.32v10.26h-1.56l-5.26-8.31v8.31h-1.32Z" transform="translate(-31.29 -258.44)"/><path class="e" d="M276.79,445.1h1.4v10.26h-1.4Z" transform="translate(-31.29 -258.44)"/><path class="e" d="M281.43,445.1h1.64l5.18,8.31V445.1h1.32v10.26H288l-5.26-8.31v8.31h-1.32Z" transform="translate(-31.29 -258.44)"/><path class="e" d="M299.67,445.39a3.67,3.67,0,0,1,1.87,2.82h-1.37a2.53,2.53,0,0,0-1-1.64,3.61,3.61,0,0,0-2-.51,3.1,3.1,0,0,0-2.4,1.07,4.57,4.57,0,0,0-1,3.18,5.07,5.07,0,0,0,.81,3,3,3,0,0,0,2.61,1.15,3.36,3.36,0,0,0,2.31-.81,3.44,3.44,0,0,0,.93-2.61h-3.21v-1.15h4.5v5.49h-.89l-.34-1.32a5.28,5.28,0,0,1-1.25,1.08,4.72,4.72,0,0,1-2.32.51,4.51,4.51,0,0,1-3.14-1.18,5.57,5.57,0,0,1-1.43-4.06,5.82,5.82,0,0,1,1.39-4.1,4.45,4.45,0,0,1,3.44-1.46A5.3,5.3,0,0,1,299.67,445.39Z" transform="translate(-31.29 -258.44)"/><path class="e" d="M310.3,445.1h1.4v10.26h-1.4Z" transform="translate(-31.29 -258.44)"/><path class="e" d="M314.94,445.1h1.64l5.18,8.31V445.1h1.32v10.26h-1.56l-5.26-8.31v8.31h-1.32Z" transform="translate(-31.29 -258.44)"/><path class="e" d="M326.35,445.1h7.11v1.26h-5.72v3.11h5v1.22h-5v4.67h-1.39Z" transform="translate(-31.29 -258.44)"/><path class="e" d="M344.2,446.57a5.64,5.64,0,0,1,1,3.48,6.08,6.08,0,0,1-1.17,3.82,4.62,4.62,0,0,1-3.9,1.79,4.7,4.7,0,0,1-3.73-1.56,6,6,0,0,1-1.2-3.82,6.05,6.05,0,0,1,1-3.56,4.46,4.46,0,0,1,3.92-1.9A4.69,4.69,0,0,1,344.2,446.57ZM343,453.1a5.59,5.59,0,0,0,.82-3,4.33,4.33,0,0,0-.94-2.91,3.24,3.24,0,0,0-2.59-1.1,3.37,3.37,0,0,0-2.6,1.09,4.6,4.6,0,0,0-1,3.22,4.69,4.69,0,0,0,.87,2.88,3.22,3.22,0,0,0,2.79,1.17A2.89,2.89,0,0,0,343,453.1Z" transform="translate(-31.29 -258.44)"/><path class="e" d="M348,445.1h4.75a4.75,4.75,0,0,1,1.94.34,2.43,2.43,0,0,1,1.44,2.43,2.73,2.73,0,0,1-.38,1.5,2.8,2.8,0,0,1-1.06.95,2,2,0,0,1,.9.64,2.29,2.29,0,0,1,.34,1.29l.05,1.38a3.44,3.44,0,0,0,.1.87.84.84,0,0,0,.44.63v.23h-1.7a1.23,1.23,0,0,1-.11-.34,6.43,6.43,0,0,1-.07-.81l-.09-1.71a1.44,1.44,0,0,0-.74-1.35,3.05,3.05,0,0,0-1.25-.19H349.4v4.4H348Zm4.6,4.7a2.69,2.69,0,0,0,1.55-.39,1.59,1.59,0,0,0,.57-1.41,1.51,1.51,0,0,0-.8-1.5,2.56,2.56,0,0,0-1.13-.21h-3.4v3.51Z" transform="translate(-31.29 -258.44)"/><path class="e" d="M359.16,445.1h2l3,8.67L367,445.1h2v10.26h-1.32V449.3c0-.21,0-.55,0-1s0-1,0-1.55l-2.92,8.65H363.4l-2.95-8.65V447c0,.25,0,.63,0,1.15s0,.89,0,1.13v6.06h-1.33Z" transform="translate(-31.29 -258.44)"/><path class="e" d="M375.1,445.1h1.57l3.73,10.26h-1.52l-1.05-3.07h-4.05l-1.11,3.07h-1.43Zm2.29,6.06-1.56-4.54-1.66,4.54Z" transform="translate(-31.29 -258.44)"/><path class="e" d="M388.93,445.1v1.22h-3.45v9h-1.42v-9h-3.45V445.1Z" transform="translate(-31.29 -258.44)"/><path class="e" d="M391.35,445.1h1.4v10.26h-1.4Z" transform="translate(-31.29 -258.44)"/><path class="e" d="M404.49,446.57a5.64,5.64,0,0,1,1,3.48,6.14,6.14,0,0,1-1.16,3.82,5.19,5.19,0,0,1-7.63.23,5.9,5.9,0,0,1-1.21-3.82,6.12,6.12,0,0,1,1-3.56,4.49,4.49,0,0,1,3.93-1.9A4.68,4.68,0,0,1,404.49,446.57Zm-1.22,6.53a5.68,5.68,0,0,0,.82-3,4.34,4.34,0,0,0-.95-2.91,3.21,3.21,0,0,0-2.59-1.1,3.35,3.35,0,0,0-2.59,1.09,4.6,4.6,0,0,0-1,3.22,4.75,4.75,0,0,0,.86,2.88,3.26,3.26,0,0,0,2.8,1.17A2.9,2.9,0,0,0,403.27,453.1Z" transform="translate(-31.29 -258.44)"/><path class="e" d="M408.22,445.1h1.64l5.18,8.31V445.1h1.32v10.26H414.8l-5.26-8.31v8.31h-1.32Z" transform="translate(-31.29 -258.44)"/><path class="e" d="M420.39,452.05a2.83,2.83,0,0,0,.41,1.42,2.74,2.74,0,0,0,2.44,1,4.33,4.33,0,0,0,1.43-.23,1.59,1.59,0,0,0,1.24-1.55,1.33,1.33,0,0,0-.53-1.19,5.19,5.19,0,0,0-1.66-.61l-1.39-.31a6.18,6.18,0,0,1-1.92-.68,2.13,2.13,0,0,1-1-1.92,3,3,0,0,1,.95-2.27,3.85,3.85,0,0,1,2.71-.89,4.68,4.68,0,0,1,2.74.78,2.8,2.8,0,0,1,1.13,2.49h-1.3a2.52,2.52,0,0,0-.45-1.26,2.58,2.58,0,0,0-2.16-.81,2.44,2.44,0,0,0-1.76.52,1.6,1.6,0,0,0-.54,1.2,1.17,1.17,0,0,0,.63,1.1,8.7,8.7,0,0,0,1.86.56l1.44.33a4.6,4.6,0,0,1,1.61.65,2.44,2.44,0,0,1,1,2.09,2.6,2.6,0,0,1-1.24,2.44,5.51,5.51,0,0,1-2.88.73,4.31,4.31,0,0,1-3-1,3.27,3.27,0,0,1-1.07-2.63Z" transform="translate(-31.29 -258.44)"/><path class="e" d="M429.77,450.73h3.51V452h-3.51Z" transform="translate(-31.29 -258.44)"/><path class="e" d="M449.6,446.57a5.64,5.64,0,0,1,1,3.48,6.08,6.08,0,0,1-1.17,3.82,5.18,5.18,0,0,1-7.62.23,5.9,5.9,0,0,1-1.21-3.82,6.05,6.05,0,0,1,1-3.56,4.48,4.48,0,0,1,3.93-1.9A4.68,4.68,0,0,1,449.6,446.57Zm-1.23,6.53a5.6,5.6,0,0,0,.83-3,4.34,4.34,0,0,0-.95-2.91,3.22,3.22,0,0,0-2.59-1.1,3.37,3.37,0,0,0-2.6,1.09,4.6,4.6,0,0,0-1,3.22,4.69,4.69,0,0,0,.86,2.88,3.26,3.26,0,0,0,2.8,1.17A2.88,2.88,0,0,0,448.37,453.1Z" transform="translate(-31.29 -258.44)"/><path class="e" d="M460.66,445.85a3.64,3.64,0,0,1,1.19,2.33H460.5a2.83,2.83,0,0,0-.92-1.57,2.91,2.91,0,0,0-1.93-.58,3.08,3.08,0,0,0-2.45,1.06,4.87,4.87,0,0,0-.93,3.27,4.75,4.75,0,0,0,.84,2.92,2.92,2.92,0,0,0,2.51,1.12,2.66,2.66,0,0,0,2.34-1.18,4.55,4.55,0,0,0,.63-1.63H462a4.6,4.6,0,0,1-1.2,2.71,4.3,4.3,0,0,1-3.3,1.33,4.36,4.36,0,0,1-3-1.09,6.65,6.65,0,0,1-.4-8.14,4.4,4.4,0,0,1,3.58-1.58A4.2,4.2,0,0,1,460.66,445.85Z" transform="translate(-31.29 -258.44)"/><path class="e" d="M464.61,445.1H466v4.24h5.34V445.1h1.4v10.26h-1.4v-4.8H466v4.8h-1.4Z" transform="translate(-31.29 -258.44)"/><path class="e" d="M481,445.1h2l2.94,8.67,2.93-8.67h2v10.26H489.5V449.3c0-.21,0-.55,0-1s0-1,0-1.55l-2.93,8.65h-1.37l-3-8.65V447c0,.25,0,.63,0,1.15s0,.89,0,1.13v6.06H481Z" transform="translate(-31.29 -258.44)"/><path class="e" d="M494.05,445.1h7.48v1.26h-6.12v3.11h5.66v1.19h-5.66v3.48h6.23v1.22h-7.59Z" transform="translate(-31.29 -258.44)"/><path class="e" d="M504.28,445.1h4.15a3.94,3.94,0,0,1,3.29,1.5,5.55,5.55,0,0,1,1,3.47,6.94,6.94,0,0,1-.62,3,3.79,3.79,0,0,1-3.72,2.33h-4.14Zm3.87,9.07a4.13,4.13,0,0,0,1.16-.14,2.62,2.62,0,0,0,1.33-1,4.26,4.26,0,0,0,.59-1.59,6.18,6.18,0,0,0,.11-1.08,5,5,0,0,0-.76-3,2.8,2.8,0,0,0-2.44-1.06h-2.47v7.88Z" transform="translate(-31.29 -258.44)"/><path class="e" d="M515.7,445.1h1.41v10.26H515.7Z" transform="translate(-31.29 -258.44)"/><path class="e" d="M520.41,445.1h7.48v1.26h-6.13v3.11h5.67v1.19h-5.67v3.48H528v1.22h-7.58Z" transform="translate(-31.29 -258.44)"/><path class="e" d="M538.37,445.1v1.22h-3.45v9H533.5v-9h-3.45V445.1Z" transform="translate(-31.29 -258.44)"/><path class="e" d="M540.7,445.1h7.48v1.26h-6.12v3.11h5.66v1.19h-5.66v3.48h6.23v1.22H540.7Z" transform="translate(-31.29 -258.44)"/><path class="e" d="M550.89,445.1h1.36v5l5-5h1.92l-4.27,4.13,4.39,6.13h-1.81l-3.59-5.15-1.64,1.57v3.58h-1.36Z" transform="translate(-31.29 -258.44)"/><path class="e" d="M561.49,445.1h1.64l5.18,8.31V445.1h1.32v10.26h-1.56l-5.26-8.31v8.31h-1.32Z" transform="translate(-31.29 -258.44)"/><path class="e" d="M573,445.1h1.4v10.26H573Z" transform="translate(-31.29 -258.44)"/><path class="e" d="M577.63,445.1H579v5l5-5h1.92l-4.27,4.13,4.39,6.13h-1.81l-3.59-5.15L579,451.78v3.58h-1.35Z" transform="translate(-31.29 -258.44)"/></svg>